<svg xmlns="http://www.w3.org/2000/svg" id="Guides" x="0" y="0" version="1.1" viewBox="0 0 128 128" xml:space="preserve">
  <defs/>
  <style>
    .st0{fill:#3880ff}
  </style>
  <path d="M124 57.4v2.3c0 .8-.4 20-9.1 35.1S89.7 119.7 89 120.1l-2 1.2-3.5-2.1-20.3-11.7c-1.2-.7-2.4-1.5-3.6-2.3-1-.7-2-1.4-2.9-2.2-5-4.3-8.9-9.8-11.3-16-2.5-6.3-3.6-13.1-3.3-19.9 2-1.1 4.2-1.6 6.5-1.6h1.6c-.6 5.9.2 11.9 2.2 17.5 2.7 7.5 7.9 13.7 14.8 17.7l19.7 11.4 1.5-1.1c7.8-5.3 14.5-12.2 19.6-20.2 6-10.5 7.5-23.7 7.9-28.9l-8.4-4.8c.7-2.8 1.1-5.6 1.3-8.5l15.2 8.8z" class="st0"/>
  <path d="M100.9 17.4V45c0 1.4 0 2.9-.2 4.3-.1 1.2-.3 2.4-.5 3.6-.5 2.7-1.3 5.3-2.4 7.9-1.5 3.6-3.4 6.9-5.8 9.9-4.2 5.3-9.5 9.7-15.6 12.8-2.4-1.5-4.3-3.7-5.4-6.3 5.4-2.5 10.1-6.1 13.9-10.6 5.1-6 8-13.7 8-21.6V22.2l-1.7-.8c-5.5-2.6-16.5-6.8-27.3-6.8-12 0-24.3 5.3-28.9 7.6v9.6c-2.7.8-5.4 1.8-8 3V17.4l2-1.1c.7-.4 17.5-9.7 34.9-9.7s34.2 9.3 34.9 9.7l2.1 1.1z" class="st0"/>
  <path d="M31.9 50.5L12.1 61.9c0 .5 0 1.1.1 1.7.7 9.5 3.3 18.7 7.7 27.1 6 10.4 16.7 18.3 21.1 21.3l8.4-4.8c2.1 2 4.3 3.8 6.6 5.4l-15.2 8.8-2-1.3c-.7-.4-17.1-10.4-25.8-25.4s-9-34.2-9-35v-2.3l3.6-2.1 20.3-11.7c1.3-.7 2.5-1.3 3.8-1.9 1.1-.5 2.2-1 3.4-1.3 2.6-.9 5.3-1.6 8-1.9 3.8-.5 7.7-.5 11.5 0 6.7 1 13.2 3.4 18.9 7.2-.1 2.8-1.1 5.5-2.7 7.8-4.8-3.4-10.3-5.7-16.1-6.8-7.9-1.5-16-.1-22.8 3.8z" class="st0"/>
</svg>
