<svg xmlns="http://www.w3.org/2000/svg" xmlns:xlink="http://www.w3.org/1999/xlink" viewBox="0 0 173 31">
  <defs/>
  <defs>
    <path id="a" d="M0 .022h19.297v20.922H0z"/>
    <path id="c" d="M.017.022h14.746v20.922H.017z"/>
    <path id="e" d="M.101.022H16.65v20.922H.1z"/>
    <path id="g" d="M.045.022h14.747v20.922H.045z"/>
    <path id="i" d="M.034.022h16.785v20.922H.034z"/>
  </defs>
  <g fill="none" fill-rule="evenodd">
    <g transform="translate(0 .21)">
      <mask id="b" fill="#fff">
        <use xlink:href="#a"/>
      </mask>
      <path fill="#000" d="M4.61 16.689h2.394c1.064 0 2.054-.108 2.97-.325.916-.217 1.709-.577 2.379-1.079.67-.502 1.197-1.162 1.58-1.98.385-.817.577-1.817.577-3 0-1.023-.192-1.915-.576-2.674a5.348 5.348 0 00-1.552-1.876c-.65-.493-1.414-.862-2.29-1.108a10.17 10.17 0 00-2.763-.37H4.61v12.412zM0 .022h6.915c1.674 0 3.266.187 4.773.56 1.507.375 2.822.981 3.945 1.818 1.123.838 2.014 1.927 2.674 3.266.66 1.34.99 2.965.99 4.876 0 1.695-.32 3.187-.96 4.477a9.63 9.63 0 01-2.586 3.25c-1.083.878-2.334 1.542-3.753 1.995-1.419.454-2.906.68-4.462.68H0V.022z" mask="url(#b)"/>
    </g>
    <g transform="translate(33.707 .21)">
      <mask id="d" fill="#fff">
        <use xlink:href="#c"/>
      </mask>
      <path fill="#000" d="M.017.022H14.23v4.255H4.627v3.9h9.072v4.256H4.627v4.256h10.136v4.255H.017z" mask="url(#d)"/>
    </g>
    <g transform="translate(95.12 .21)">
      <mask id="f" fill="#fff">
        <use xlink:href="#e"/>
      </mask>
      <path fill="#000" d="M6.07 4.1H.101V.022H16.65V4.1h-5.97v16.844H6.07z" mask="url(#f)"/>
    </g>
    <g transform="translate(126.056 .21)">
      <mask id="h" fill="#fff">
        <use xlink:href="#g"/>
      </mask>
      <path fill="#000" d="M.045.022H14.26v4.255H4.655v3.9h9.073v4.256H4.655v4.256h10.137v4.255H.045z" mask="url(#h)"/>
    </g>
    <g transform="translate(155.146 .21)">
      <mask id="j" fill="#fff">
        <use xlink:href="#i"/>
      </mask>
      <path fill="#000" d="M4.644 8.68h2.719c.413 0 .852-.014 1.315-.044a4.13 4.13 0 001.256-.266c.374-.148.684-.38.93-.695.247-.314.37-.758.37-1.33 0-.531-.109-.955-.325-1.27a2.18 2.18 0 00-.827-.724 3.684 3.684 0 00-1.153-.34 9.44 9.44 0 00-1.27-.088H4.643V8.68zM.034.022H8.13c1.064 0 2.073.103 3.03.31.954.207 1.792.552 2.511 1.034.72.483 1.29 1.134 1.714 1.95.423.819.635 1.838.635 3.06 0 1.477-.384 2.733-1.152 3.767-.768 1.034-1.891 1.69-3.369 1.965l5.32 8.836h-5.527L6.92 12.581H4.644v8.363H.034V.022z" mask="url(#j)"/>
    </g>
    <path fill="#0CCA4A" d="M83.941 30.915c.745 0 1.349-.603 1.349-1.348v-1.59c0-.744-.604-1.348-1.349-1.348H62.037c-.745 0-1.349.604-1.349 1.349v1.589c0 .745.604 1.348 1.349 1.348H83.94z"/>
    <path fill="#000" d="M83.058 17.092l-6.435-6.435 6.435-6.435a1.19 1.19 0 000-1.683L81.181.66a1.19 1.19 0 00-1.684 0l-6.435 6.435L66.627.661a1.19 1.19 0 00-1.684 0L63.066 2.54a1.19 1.19 0 000 1.683l6.435 6.435-6.435 6.435a1.19 1.19 0 000 1.684l1.877 1.878a1.19 1.19 0 001.684 0l6.435-6.435 6.435 6.435a1.19 1.19 0 001.684 0l1.877-1.878a1.19 1.19 0 000-1.684"/>
  </g>
</svg>
