<svg xmlns="http://www.w3.org/2000/svg" viewBox="0 0 1024 324">
  <defs/>
  <style>
    .st0{display:none}
  </style>
  <g id="Layer_2">
    <path fill="#3880ff" d="M166.8 24.2c36.8 0 71.4 14.3 97.4 40.4 26 26 40.4 60.6 40.4 97.4 0 36.8-14.3 71.4-40.4 97.4-26 26-60.6 40.4-97.4 40.4s-71.4-14.3-97.4-40.4c-26-26-40.4-60.6-40.4-97.4 0-36.8 14.3-71.4 40.4-97.4 26-26.1 60.6-40.4 97.4-40.4m0-24.2C77.3 0 4.8 72.5 4.8 162s72.5 162 162 162 162-72.5 162-162S256.2 0 166.8 0z"/>
    <path d="M166.8 0h-.2L89.1 304.2c23.1 12.6 49.5 19.8 77.7 19.8 28.1 0 54.5-7.2 77.6-19.7L167 0h-.2z"/>
    <g>
      <path d="M474.9 255c-34.9 0-59.5-19.4-60-48.1H439c1.5 14.4 11.7 28.9 35.9 28.9 21.9 0 34.9-12.4 34.9-28.9 0-46.8-93.9-16.9-93.9-81.4 0-28.6 23.2-48.1 57.5-48.1 33.1 0 54.8 18.2 57.5 44.6H506c-1.5-11.7-12.5-24.9-33.6-25.1-18.7-.5-33.4 9.2-33.4 27.9 0 44.8 93.6 16.9 93.6 81.2 0 24.6-20.1 49-57.7 49zM639.7 114.5c36.6 0 64.7 27.4 64.7 70 0 42.3-28.1 71-64.7 71-24.9 0-42.6-13.4-51-27.4V318H566V116.8h22.7v25.1c8.2-14.4 26.1-27.4 51-27.4zm-4.7 19.7c-24.7 0-46.3 18.9-46.3 50.5 0 32.1 21.7 50.8 46.3 50.8 25.1 0 46.3-18.9 46.3-51s-21.2-50.3-46.3-50.3zM730.6 79.2c0-8.7 6.7-15.4 15.4-15.4 8.2 0 14.9 6.7 14.9 15.4s-6.7 15.4-14.9 15.4c-8.7 0-15.4-6.7-15.4-15.4zm3.7 37.6H757v136.4h-22.7V116.8zM818.2 253.2h-22.7V116.8h22.7V139c7.7-15.2 22.4-24.7 44.1-24.7v23.4h-6c-21.7 0-38.1 9.7-38.1 41.3v74.2zM947.5 255.5c-38.8 0-67.5-27.4-67.5-70.7 0-43.1 27.6-70.2 67.5-70.2 39.6 0 65.5 27.9 65.5 65.2 0 5-.2 9-.7 13.7H903.2c1.7 27.6 21.2 42.8 44.3 42.8 20.4 0 33.4-10.5 38.3-25.1h24.4c-7 24.8-28.9 44.3-62.7 44.3zM903.4 175h86.2c.2-26.6-19.7-41.3-43.1-41.3-22.2 0-40.6 14.7-43.1 41.3z"/>
    </g>
  </g>
</svg>
