<svg xmlns="http://www.w3.org/2000/svg" xmlns:xlink="http://www.w3.org/1999/xlink" viewBox="0 0 566.93 566.93"><defs><style>.cls-1,.cls-5{fill:#fff;}.cls-1,.cls-7{stroke:#0477bc;stroke-linejoin:round;stroke-width:2.75px;}.cls-2{isolation:isolate;}.cls-3{fill:#dce2f0;}.cls-4{fill:#d5ecf7;mix-blend-mode:multiply;}.cls-6{clip-path:url(#clip-path);}.cls-7{fill:none;}.cls-8{fill:#0477bc;}</style><clipPath id="clip-path"><path class="cls-1" d="M499.92,153.82,105.23,124.4a20.91,20.91,0,0,0-22.41,19.29L81,167.55,64.59,388.26a20.1,20.1,0,0,0,18.56,21.55l396.27,29.55A20.12,20.12,0,0,0,501,420.79l16.46-220.71,1.78-23.85A20.91,20.91,0,0,0,499.92,153.82Z"/></clipPath></defs><g class="cls-2"><g id="Browser_Window" data-name="Browser Window"><circle class="cls-3" cx="283.46" cy="283.46" r="239.17"/><path class="cls-4" d="M443.43,450.18l15.63-209.67,1.69-22.66a19.87,19.87,0,0,0-18.34-21.29l-375-27.95a19.87,19.87,0,0,0-21.29,18.33L44.48,209.6,28.85,419.27a19.12,19.12,0,0,0,17.64,20.49L423,467.82A19.11,19.11,0,0,0,443.43,450.18Z"/><path class="cls-5" d="M499.92,153.82,105.23,124.4a20.91,20.91,0,0,0-22.41,19.29L81,167.55,64.59,388.26a20.1,20.1,0,0,0,18.56,21.55l396.27,29.55A20.12,20.12,0,0,0,501,420.79l16.46-220.71,1.78-23.85A20.91,20.91,0,0,0,499.92,153.82Z"/><g class="cls-6"><rect class="cls-4" x="57.71" y="138.72" width="478.18" height="33.28" transform="translate(12.37 -21.64) rotate(4.26)"/></g><path class="cls-7" d="M499.92,153.82,105.23,124.4a20.91,20.91,0,0,0-22.41,19.29L81,167.55,64.59,388.26a20.1,20.1,0,0,0,18.56,21.55l396.27,29.55A20.12,20.12,0,0,0,501,420.79l16.46-220.71,1.78-23.85A20.91,20.91,0,0,0,499.92,153.82Z"/><circle class="cls-8" cx="138.22" cy="146.65" r="6.01"/><circle class="cls-8" cx="169.12" cy="148.95" r="6.01"/><circle class="cls-8" cx="107.32" cy="144.34" r="6.01"/><rect class="cls-4" x="92.58" y="182.7" width="190.38" height="202.06" transform="translate(21.57 -13.15) rotate(4.26)"/><rect class="cls-4" x="302.82" y="198.21" width="190.38" height="112.3" transform="translate(19.97 -28.83) rotate(4.26)"/><rect class="cls-4" x="296.79" y="320.28" width="190.38" height="30.25" transform="matrix(1, 0.07, -0.07, 1, 25.97, -28.16)"/></g></g></svg>