<svg id="f53b9040-2fbf-4b94-8f11-4681586ba07e" data-name="Layer 1" xmlns="http://www.w3.org/2000/svg" width="248" height="96" viewBox="0 0 248 96"><g id="b39293de-76ab-451f-bebc-f00eb809acf3" data-name="Calque 2"><g id="b1771db3-bf87-4ce0-87dc-7b8df5d24779" data-name="Calque 1-2"><path id="fd0672ea-15f7-4133-be7f-744af4dcaca4" data-name="Shape" d="M41.45,18.5H18.84V49H49.37V26.39a7.89,7.89,0,0,0-7.89-7.89Z" style="fill:#142533"/><path d="M11.79,18.5H7.89A7.89,7.89,0,0,0,0,26.39H0v3.9H11.79Z" style="fill:#142533"/><polygon id="a141d918-9dce-4028-881e-9fbc58e425a3" data-name="Rectangle-path" points="0 37.34 11.79 37.34 11.79 49.13 0 49.13 0 37.34" style="fill:#142533"/><path d="M37.68,67.87h3.9A7.9,7.9,0,0,0,49.47,60V56.18H37.68Z" style="fill:#142533"/><polygon points="18.84 56.18 30.63 56.18 30.63 67.97 18.84 67.97 18.84 56.18" style="fill:#142533"/><path d="M0,56.18v3.89A7.9,7.9,0,0,0,7.89,68h3.9V56.18Z" style="fill:#142533"/><polygon points="79.5 21.65 74.89 21.65 74.89 64.81 99.34 64.81 99.34 60.69 79.5 60.69 79.5 21.65" style="fill:#142533"/><path d="M114.18,33.09c-9,0-15.32,6.68-15.32,16.29v1.09a15.77,15.77,0,0,0,15.67,15.19h.59a17.68,17.68,0,0,0,11.47-4.25v-.12l-2.08-3.4-.23.12a13.54,13.54,0,0,1-9.13,3.65A11.41,11.41,0,0,1,103.48,50.5q0-.31,0-.63h23.33V47.44C127,38.68,122,33.09,114.18,33.09ZM103.73,46a10.24,10.24,0,0,1,10.2-9c3.9,0,8.17,2.34,8.51,9Z" style="fill:#142533"/><path d="M153.89,36.74v1.61A11,11,0,0,0,144.54,33H144c-8.27,0-14,6.55-14,16.16s5.46,16.3,13.6,16.3a11.34,11.34,0,0,0,10.35-5.61v4.75h4.37v-43h-4.42Zm-9.48,24.67c-5.71,0-9.48-5-9.48-12.16s4-12,9.61-12c4.64,0,9.35,3.78,9.35,12,0,9-5,12.16-9.58,12.16Z" style="fill:#142533"/><path d="M185.05,37.34v.24c-.87-1.46-3.53-4.61-9.93-4.61-8.15,0-13.51,6.2-13.51,15.69s5.61,15.91,13.88,15.91a10.34,10.34,0,0,0,9.6-5v4.27c0,6-3.77,9.36-10.47,9.36a18.22,18.22,0,0,1-8.32-2l-.22-.13-1.71,3.78.25.12a22.9,22.9,0,0,0,10.07,2.48c7.18,0,14.9-3.65,14.9-13.75V34h-4.54Zm-9,23.35c-5.95,0-9.92-4.61-9.92-11.79s3.4-11.44,9.23-11.44c6.43,0,9.48,3.77,9.48,11.44S181.87,60.69,176,60.69Z" style="fill:#142533"/><path d="M207.91,33.09c-9,0-15.22,6.68-15.22,16.16v1.09A15.82,15.82,0,0,0,208.5,65.66h.62a17.73,17.73,0,0,0,11.42-4.27h0l-2.11-3.63h-.25a13.47,13.47,0,0,1-9.11,3.65,11.43,11.43,0,0,1-11.69-11.18c0-.2,0-.41,0-.61h23.53V47.19C220.91,38.68,215.8,33.09,207.91,33.09ZM197.56,46a10.25,10.25,0,0,1,10.22-9c3.87,0,8.14,2.34,8.49,9Z" style="fill:#142533"/><path d="M239.88,33.69a4.12,4.12,0,0,1-1.72-.25,10.43,10.43,0,0,0-9.6,7.17V33.69h-4.5v31h4.62v-13a19.27,19.27,0,0,1,1-5.88c1.46-4.74,4.74-7.77,8.64-7.77a7.12,7.12,0,0,1,1.46,0H240V33.69Z" style="fill:#142533"/></g></g></svg>