<svg xmlns="http://www.w3.org/2000/svg" xmlns:xlink="http://www.w3.org/1999/xlink" viewBox="0 0 2592 653.73"><defs><style>.cls-1{fill:#311b58;}.cls-2,.cls-7{fill:#00e8cc;}.cls-3{fill:#50239f;}.cls-4{fill:url(#linear-gradient);}.cls-5{fill:url(#linear-gradient-2);}.cls-6{fill:url(#linear-gradient-3);}.cls-7{font-size:512.66px;font-family:Roboto-Medium, Roboto;}</style><linearGradient id="linear-gradient" x1="339.17" y1="310.59" x2="442.27" y2="310.59" gradientUnits="userSpaceOnUse"><stop offset="0" stop-color="#00e8cc"/><stop offset="0.95" stop-color="#00e8cc"/></linearGradient><linearGradient id="linear-gradient-2" x1="363.45" y1="135.72" x2="412.6" y2="135.72" xlink:href="#linear-gradient"/><linearGradient id="linear-gradient-3" x1="378.67" y1="532" x2="412.6" y2="532" xlink:href="#linear-gradient"/></defs><title>Airgap_Logo_sideways_color</title><g id="Ebene_4" data-name="Ebene 4"><path class="cls-1" d="M378.69,84.8c0-9.62-6.8-13.53-15.11-8.68,0,0-32,18.7-56.2,30.19-29.07,13.83-74.81,26-103.75,31.63-18.81,3.65-21.51,15.68-22.43,26.88-1.39,17-2.32,37.62-2.85,54.64-1.37,44.2-5.31,90.38-.55,134.4,2.86,26.44,10.11,56.25,22.48,80a341.2,341.2,0,0,0,70.18,92.55c28.73,26.69,92.38,56.41,92.38,56.41,8.72,4.07,15.86-.47,15.86-10.1Z"/><path class="cls-2" d="M306.88,133c-41.68,16.44-101.62,30.22-101.62,30.22-1.74,22.14-3.47,44.39-4.15,66.61-1.22,39.4-4.73,80.56-.49,119.8,2.55,23.57,9,50.14,20,71.29,16.05,30.8,37,61.66,62.56,85.39s57.87,39.25,89.26,53.88l6.22,2.88V98.94A622.76,622.76,0,0,1,306.88,133Z"/><path class="cls-1" d="M429.69,572.7c0,9.62,7.13,14.16,15.85,10.07,0,0,63.36-29.69,92.1-56.39a341.19,341.19,0,0,0,70.18-92.55c12.37-23.72,19.62-53.53,22.48-80,4.76-44,.82-90.2-.55-134.4-.53-17-1.45-37.65-2.85-54.64-.92-11.2-3.62-23.24-22.43-26.88-28.93-5.62-74.68-17.81-103.75-31.63-24-11.43-55.91-30-55.91-30-8.31-4.85-15.12-.94-15.12,8.68Z"/><path class="cls-3" d="M435.69,560.22c31.38-14.63,63.64-30.09,89.25-53.88s46.51-54.59,62.56-85.39c11-21.15,17.49-47.72,20-71.29,4.24-39.24.73-80.4-.49-119.8-.69-22.22-2.42-44.46-4.15-66.61,0,0-59.94-13.78-101.62-30.22a622.28,622.28,0,0,1-71.58-34V563Z"/><rect class="cls-4" x="339.17" y="255.55" width="103.09" height="110.07"/><path class="cls-2" d="M477.36,213.82H276.55a28.3,28.3,0,0,1,0-56.59H477.36a28.3,28.3,0,0,1,0,56.59Z"/><path class="cls-2" d="M468,395.74H276.55a30.12,30.12,0,1,1,0-60.25H468a30.12,30.12,0,1,1,0,60.25Z"/><path class="cls-3" d="M477.36,452.37H349a28.3,28.3,0,0,1,0-56.59H477.36a28.3,28.3,0,0,1,0,56.59Z"/><path class="cls-5" d="M378.67,138.22c0-10.53,0-27.49,0-27.49l-15.24.88V160.7H412.6v-3.42H397.73A19.06,19.06,0,0,1,378.67,138.22Z"/><path class="cls-6" d="M378.67,540.37c0,10.53,0,3.38,0,3.38V518.51l33.91-.62v3.42H397.73A19.06,19.06,0,0,0,378.67,540.37Z"/><path class="cls-3" d="M448,297.42H350.25a41.87,41.87,0,0,1,0-83.73H448a41.87,41.87,0,0,1,0,83.73Z"/><path class="cls-2" d="M443.87,521.25h-86a34.49,34.49,0,1,1,0-69h86a34.49,34.49,0,0,1,0,69Z"/><path class="cls-3" d="M530.28,335.49H401.93a21.61,21.61,0,0,1,0-43.21H530.28a21.61,21.61,0,1,1,0,43.21Z"/><text class="cls-7" transform="translate(812.08 495.87)">Air<tspan class="cls-3" x="652.34" y="0">Gap</tspan></text></g></svg>