<svg id="f7d0dd9e-692b-40e3-8879-471d2c06b5dc" data-name="Layer 1" xmlns="http://www.w3.org/2000/svg" xmlns:xlink="http://www.w3.org/1999/xlink" width="500" height="500" viewBox="0 0 500 500"><defs><clipPath id="a30477bd-f89f-46cb-9a32-8ea95b5db212"><rect x="168.02" y="284.25" width="51.88" height="179.05" style="fill:none"/></clipPath><clipPath id="b8e33566-5bb2-47be-b86a-c275594ae72b"><path d="M126.62,272.5h77.49a2.93,2.93,0,0,0,3.13-2.71,2.44,2.44,0,0,0,0-.66l-7.41-48.46a4.2,4.2,0,0,0-4.09-3.44h-77.5a2.92,2.92,0,0,0-3.13,2.71,2.81,2.81,0,0,0,0,.65l7.37,48.48a4.22,4.22,0,0,0,4.15,3.43" style="fill:none"/></clipPath><clipPath id="efd6c2b2-caba-485f-b5cd-d046115ea20a"><path d="M129.31,277.91H240.38a3.84,3.84,0,0,0,4.18-3.47,4.7,4.7,0,0,0,0-.65v-.27a1.27,1.27,0,0,0-1.1-1.22H126.22a1.09,1.09,0,0,0-1.09,1.09h0v.28a4.18,4.18,0,0,0,4.18,4.18h0" style="fill:none"/></clipPath></defs><title>beacon_illu_hero</title><path id="f7c35968-48eb-4258-8f05-5c9615334341" data-name="Path 1" d="M340.75,390.38c-21.55,10.2-44.09,18-66.44,26.25-10.25,3.77-20.58,6.61-28.95,13.44-7.82,6.4-12.73,15.73-21,21.74-6.43,4.67-14.19,7.1-22,8.68A119.67,119.67,0,0,1,60.3,362.22c-3-18.38-.27-37.35-4.09-55.63-4-19.32-16.44-33.29-26.73-49.56a142.85,142.85,0,0,1-16.42-36.65c-2.13-7.43-3.66-15.27-2.3-22.89,3.71-20.68,26.46-31.76,47-36.25,25.66-5.57,71.87-3.21,97.67,1.67,20.16,3.88,21.88,9.39,42.71,6.74,23.49-3,35.66-23.73,53.34-37.12,39.73-30.14,103.77-17.18,136.75,17,40.71,42.26,64.65,125.26,31.13,177.34-18.26,28.38-47.18,48.42-77.65,63C341.4,390.06,341.08,390.22,340.75,390.38Z" style="fill:#f3fbff"/><path id="a4ef206f-ad54-4abf-80d7-01e8a4082e64" data-name="Path 3" d="M453.88,78.7c-2.19-.62-4.38-1.39-6.68-1.25-2.46.11-5-.31-7.41.48a18.59,18.59,0,0,0-5.17,2.4,16.41,16.41,0,0,1-3.55,2.17c-2.55-.1-5.09,0-7.64.07a19.73,19.73,0,0,0-6.26,2.29c-1.81.92-2.79,2.78-3.86,4.4a11.52,11.52,0,0,0-1.56,5c-3.8,0-7.83,0-11.17,2.07-1.42,1-3.15,1.61-4.15,3.07-1.48,2-2.78,4.4-2.48,7,.92,0,1.85.11,2.77.11,31-.07,62,.06,93-.07a11.68,11.68,0,0,0-1.46-5.65c-.89-1.36-1.67-2.9-3.13-3.72A18,18,0,0,0,476.78,94c-3.3-.58-6.64-.14-10-.41a16.47,16.47,0,0,0-1.92-6.49A8.61,8.61,0,0,0,463,84.66a17.34,17.34,0,0,0-3.9-3.3A27.59,27.59,0,0,0,453.88,78.7Z" style="fill:#c7ecff;opacity:0.300000011920929;isolation:isolate"/><path id="ed2e3918-9bc9-4314-9cae-9e5a08bb832a" data-name="Path 9618" d="M214.55,149.31H217v-2.42a1.38,1.38,0,0,1,2.76,0v2.42h2.42a1.38,1.38,0,1,1,0,2.75h-2.42v2.43a1.38,1.38,0,0,1-2.75,0v-2.42h-2.42a1.38,1.38,0,0,1,0-2.76Z" style="fill:#fcd24f"/><g id="a7568b72-3991-489f-9692-dc5fd7d89780" data-name="Group 7193"><path id="a52c1623-3bb4-4fa1-9c1b-a95239e62804" data-name="Path 9615" d="M175.22,284.13a5.47,5.47,0,1,1,5.46,5.47A5.46,5.46,0,0,1,175.22,284.13Zm2.9,0a2.57,2.57,0,1,0,2.56-2.57h0a2.57,2.57,0,0,0-2.56,2.57Z" style="fill:#2474bc"/></g><g id="add20392-0a86-451f-bb58-f639e7ede6d4" data-name="Group 7197"><path id="e9eed59e-eee0-47ab-94bb-e908af70daed" data-name="Path 9617" d="M385.59,352.2a3.4,3.4,0,0,1-3.4-3.4h0a3.4,3.4,0,0,1,3.4-3.4M384,348.8a1.59,1.59,0,1,0,1.59-1.58h0A1.59,1.59,0,0,0,384,348.8Z" style="fill:#2474bc"/></g><path id="a6eb7b22-6453-42e0-93b2-8a3ff5114a77" data-name="Path 9619" d="M376.61,157.69H379v-2.42a1.38,1.38,0,1,1,2.75,0v2.42h2.42a1.38,1.38,0,0,1,0,2.76h-2.42v2.42a1.38,1.38,0,0,1-2.75,0v-2.43h-2.42a1.37,1.37,0,0,1-1.38-1.37h0A1.4,1.4,0,0,1,376.61,157.69Z" style="fill:#2474bc"/><g id="a240f49f-6013-4f7d-8ddb-a663a44062dd" data-name="Group 7190"><g id="a83c4848-d415-489e-9762-85296cdb6b7e" data-name="Group 7189"><g id="af766c63-3da7-4ecc-82fe-dd63e0911736" data-name="Group 7158"><path id="e16ec0f1-9fdc-41c9-ba33-24bd32f70d79" data-name="Path 9583" d="M315.47,446.11l13.65,5.76.19-17-14.15,3.46Z" style="fill:#fdcbaa"/></g><g id="b4751a29-289d-43bc-b9d2-b236ba954e0b" data-name="Group 7159"><path id="b14a1328-3b72-4ba6-ac48-f2f95f875cc3" data-name="Path 9584" d="M335.78,259l-23.19,102.6,2.55,77h14.15s13.83-53.38,6.78-75.57l27.65-64Z" style="fill:#184968"/></g><g id="beec8bce-47d5-47e2-8ab1-129d94b3efb1" data-name="Group 7166"><path id="be1b76ef-fa1a-41e9-b53d-c9f6edf7fc2f" data-name="Path 9588" d="M367.43,451.62h13v-13H367.14Z" style="fill:#fdcbaa"/></g><g id="ef65dfcf-cd5a-4b55-80d3-4bd86fe039e4" data-name="Group 7167" style="opacity:0.300000011920929"><path id="abd29ee2-ac10-4327-9efa-f803e888201e" data-name="Path 9589" d="M333.94,267.21l7.93.5L363.74,299l-11.6,26.86-6.41-30.26-13.82-19.43Z" style="fill:#191c3c"/></g><g id="bdffc14a-40c0-468f-8942-350832e52de2" data-name="Group 7168"><path id="acff6063-2abc-46bb-9b37-fc91741c0f88" data-name="Path 9590" d="M387.74,270.32l-1,88.44c9.39,19.3-6.27,79.82-6.27,79.82l-13.29.35L365,367.21,349.9,295.63l-20.61-28.92Z" style="fill:#184968"/></g><g id="e851a7f1-d112-40b9-b8b6-384a84d9ea9d" data-name="Group 7173"><path id="a8c293d3-0ba7-4f54-8774-ce364e19ccee" data-name="Path 9596" d="M268.5,155.29l-3.17,4a5.2,5.2,0,0,0-.94,4.55l1.75,6.53,5,4.44,23.93,42.6,22.65-7.08-3.34-18.82L305,195.19l-24.8-27.92.4-7.77a3.22,3.22,0,0,0-2.46-3.3l-3.76-.92-.44,4.56" style="fill:#fdcbaa"/></g><g id="ad265a1f-3a7d-4a65-9ef7-fb2b67d64ab0" data-name="Group 7174"><path id="ad977f0f-cbaf-4387-9278-c2db3a356df7" data-name="Path 9597" d="M353.26,179.73l37.13-9.31L366,118.27l-17.74,15.67,8.27,24Z" style="fill:#fdcbaa"/></g><g id="addd574f-1ff4-49e5-a642-6727a759b79a" data-name="Group 7175" style="opacity:0.200000002980232"><path id="b4f87e40-49ba-49b1-afaf-f20e24d8bcc5" data-name="Path 9598" d="M308.92,193.67l5.49-2.13,3.34,18.82-5.93,1.86Z" style="fill:#494949"/></g><g id="abf7eb36-6bc6-41ca-a1d2-600f1de97dc4" data-name="Group 7176"><path id="bc2132e5-99aa-48f4-89d6-b6e98cf21091" data-name="Path 9599" d="M356.48,158l-24.42,14.13a6.2,6.2,0,0,0-1.25.92l-18.2,16.43,3.66,23.43,46-27.38Z" style="fill:#2474bc"/></g><g id="a4d9c008-7c4d-48c4-a160-f4f0644f78d1" data-name="Group 7177"><path id="f71edef7-e024-4206-be3d-ab49728728ac" data-name="Path 9600" d="M400,183.34l-9.58,89.54H324.61l17.47-104.55L356.48,158,368,171.65l14.92-17.86Z" style="fill:#3880ff"/></g><g id="b00121c7-f8e4-4f3b-a500-c446de0176d1" data-name="Group 7178"><path id="ae14514e-9adc-42a1-98be-fad5eb398009" data-name="Path 9601" d="M368.33,126.76a90.52,90.52,0,0,0,5.3,10.67c.63,1.06,1.63,3.67,3,4,1.81.38,1.81-1.58,1.77-2.77,0-1.92.84-3.74,1.11-5.66.12-.9.1-1.79.18-2.69a52.88,52.88,0,0,1,1.46-6.28c.94-4.15-.77-7.68-2.77-11.25-.95-1.86-2-3.67-3.13-5.43-1.51-2.14-3.68-2.1-5.74-3.42-1.59-1-2.65-3-4.51-3.3-2.3-.42-4.63,1.94-6.8,1s-4.3-2.17-6.76-.79a7.52,7.52,0,0,1-2.55,1.3,9.87,9.87,0,0,1-2-.19,9.38,9.38,0,0,0-3.78.64c-1.17.38-2.46.88-2.86,2a18.21,18.21,0,0,1-.39,2.13,2.81,2.81,0,0,1-2.32,1.27,7.15,7.15,0,0,0-2.67.54c-1.28.73-1.65,4.51-1.05,5.72.67,1.38,2.4,1.9,3.93,1.82s3-.61,4.53-.7,3.25.36,4,1.72a5.66,5.66,0,0,1,.46,1.33c.63,2.51,1.23,5,1.86,7.49.58,2.34,1.23,4.8,3,6.47a7.11,7.11,0,0,0,6.93,1.5,8.58,8.58,0,0,0,5.2-5,9.85,9.85,0,0,1,1.27-2.73,2,2,0,0,1,2.67-.5A2.69,2.69,0,0,1,368.33,126.76Z" style="fill:#4d5068"/></g><g id="a47730b0-cd4f-4336-a557-86f455c91a92" data-name="Group 7179"><path id="e89528ed-8f8f-40dc-9bf2-76a10823ad11" data-name="Path 9602" d="M338.18,116.41v12l1.56,1.57s-3.4,4.69-3.13,9.66h3.13v5.93a9.2,9.2,0,0,0,9.2,9.2h1.17A12.87,12.87,0,0,0,363,141.91v-5.15s5-2.36,5-6.78c0,0,.8-6.78-3.4-6.53,0,0-5.49-.28-5.74,4.17l-6,.52v-3.36a4.51,4.51,0,0,0-4.19-4.49h0l-.25-7S341.31,112,338.18,116.41Z" style="fill:#fdcbaa"/></g><g id="b33dec5e-04a1-4895-8c9f-f18f267c3d6e" data-name="Group 7180"><path id="be90c11a-955d-413f-88a7-134fec867a0e" data-name="Path 9603" d="M340.26,148.38c.92-.5,1.3.88,1.4,1.51s.29,1.37.9,1.52a1.76,1.76,0,0,0,.79-.06,8,8,0,0,0,1.17-.38,4.88,4.88,0,0,0,.86-.56c1-.75,1.9-1.5,1.83-2.82s-.39-2.57-1.73-3.15a7.15,7.15,0,0,0-3.46-.33c-.9.06-2.17.52-2.8-.38a1.91,1.91,0,0,1,0-1.65,2.55,2.55,0,0,1,.4-.87c.56-.74,3.23-.51,4.15-.55a18.14,18.14,0,0,1,3.21-.1,4.09,4.09,0,0,1,2.67,1.33c.55.69.86,1.65,1.67,2a2.16,2.16,0,0,0,1.07.06,3,3,0,0,0,2.09-1.17c.62-1,.23-2.32-.11-3.46-.73-2.57-.42-5.24-1.11-7.75-.37-1.37-1.08-4.71.05-5.88h6.09c-.63,2.82-1.36,7.84-.25,10.51,1.94,4.68,5.82,11.34,1.27,15.72a14.51,14.51,0,0,1-4.36,2.56,11.71,11.71,0,0,1-3.09,1c-1.23.14-2.48-.11-3.73,0-1.57.07-3.13.63-4.68.34a8,8,0,0,1-2.81-1.32,1.45,1.45,0,0,1-.51-.41,4.6,4.6,0,0,1-.31-.88,3.72,3.72,0,0,0-.35-.58,4.7,4.7,0,0,1-.78-2.84C339.85,149,340,148.55,340.26,148.38Z" style="fill:#4d5068"/></g><g id="b78851ea-40b3-4fc3-86b2-e332ac0a486b" data-name="Group 7182" style="opacity:0.140000000596046"><g id="ffa2dbe6-b042-46ed-a462-db32e3441471" data-name="Group 7181"><path id="ec7995ed-b00a-46f4-a985-c333de9f0268" data-name="Path 9604" d="M334.21,387.7a5.73,5.73,0,0,0,1.42-3.15c0-.63-2-4-1.79-4.3a2,2,0,0,1,1.45-.73c-.16-.77-1-1.17-1.62-1.65s-1.11-1.48-.53-2c.82-.61,1.78-.38,2.63-.52a62.5,62.5,0,0,0-1.15-6.37,12.73,12.73,0,0,0-2.06-5.38c-1.05-1.38-2.9-1.59-3.63-3.19a.69.69,0,0,1-.09-.44c.06-.38.54-.48.92-.5a41,41,0,0,0,4.7-.27c.87-.17,3-1.42,3.42-.67s-1.54,3.73-1.86,4.46c2.26,7.12,2.19,15,1.86,22.35-.21,4.47-.63,8.91-1.15,13.34-.48,3.92-.56,8.7-1.88,12.37a11.37,11.37,0,0,0-.92-5.24,23.5,23.5,0,0,0-3.09-4.63,2.88,2.88,0,0,1-.52-.81,2.61,2.61,0,0,1-.13-.88,12.16,12.16,0,0,1,.13-2.17c1.79,1,3.53,1.73,5.36,2.53-.29-2.47-.54-5.58-2.21-7.54a2.74,2.74,0,0,1-1-1.71,2.24,2.24,0,0,1,.23-.79C333.15,389.14,333.69,388.43,334.21,387.7Zm17.51-60.89c.61-1.38-2.78-.15-3,0a6.92,6.92,0,0,0-2.36,3.3,56.76,56.76,0,0,0-1.36,6.21,16.89,16.89,0,0,1-4.44,7.85c1,0,1.52,1.21,1.29,2.15a6.44,6.44,0,0,1-1.58,2.4c-1.09,1.34-1.55,3.78-2.72,4.86-.56.53-1.44.53-2.08.8.27.37,3,2.92,3,3.15,0,0,13.25-30.7,13.25-30.72Z" style="fill:#191c3c"/></g></g><g id="e9026991-4cfc-4e80-b78f-5622da57a39e" data-name="Group 7185" style="opacity:0.270000010728836"><g id="add15235-3621-4368-a242-95e84be5ffcc" data-name="Group 7183"><path id="bd22c386-ada2-4caa-95f6-a14441342e22" data-name="Path 9605" d="M392.14,256.48l-.35,3.32a1.11,1.11,0,0,1-.23-1.13A16.42,16.42,0,0,0,392.14,256.48Z" style="fill:#bfbfbf"/></g><g id="a1c6eb7a-8af5-41c2-86fd-ffe3ac9ff167" data-name="Group 7184"><path id="b69e8a7c-4359-44d3-bd10-df201ad4cce5" data-name="Path 9606" d="M392.43,217.92c2-.5-1.91-2.13-3.36-3.78-.2-.54,4.32-.65,4.78-.94-.27-2,0-3.78-.27-5.76-1-.54-4.88-1-3.9-1.31,4.95-1.67.9-23.21-.56-26.42-.69-1.5,5.05,7.83,5.74,9.35,1.75,3.88,2.27,7.84,3.23,11.83l-.58,5.51c-.25,0-.48.08-.73.14a7.7,7.7,0,0,1,.64.59l-1.37,12.92c-.4,0-.09,1.21-.48,1.25.37.54,0,0,.29.56l-3.24,30.28c-2.21,12.79-2.52-8.22-2.21-11.85.63-7.37,4.49-16-.71-17.22C388.51,222.82,391.35,218,392.43,217.92Z" style="fill:#616393"/></g></g><g id="bc9b5fc9-de17-4678-b5cc-21ff1733f266" data-name="Group 7186"><path id="ad762ad1-9650-48e9-b501-a00fd29c5c24" data-name="Path 9607" d="M417.2,212.89l1.32,14.9-13.31,62.62,1.56,8.08-1.56,10.7-3.84,3.38-5.28,1.57-5.7,2.08H388l-5.09-2.08,3.28-4.18,1.29-6.63-2.09,3.5-3.94,1,5-12.27,8.2-8.49L400,232.87l-2.06-20Z" style="fill:#fdcbaa"/></g><g id="bcde44f8-0931-47b5-9407-047d852625e0" data-name="Group 7187"><path id="e51e34d9-81c7-404b-9584-23cd04f33803" data-name="Path 9608" d="M417.58,217.06H398.34l-.44-4.17h19.3Z" style="fill:#494949;opacity:0.200000002980232;isolation:isolate"/></g><g id="f50b4422-39d4-4702-aaeb-76d972f79f42" data-name="Group 7188"><path id="f92ffa2d-39f0-44af-ac75-f24ffb9f76d3" data-name="Path 9609" d="M382.9,153.79l29.8,17a11.06,11.06,0,0,1,5.57,9.09l1.54,33H396.06l-1.45-22.65Z" style="fill:#2474bc"/></g></g><path id="a28e216e-de5d-4c1e-b039-695bdd7e5d07" data-name="Path 9610" d="M288.34,460.26c.63-.81,10.37-4.47,16.36-7.28a28.93,28.93,0,0,0,8.12-6.2l1.19-1.3c.94-1.06,1.48-1.79,1.48-1.79a17.46,17.46,0,0,0,7.52,5.13c4.38,1.3,6.13.59,6.13.59l0,10.37c0,1.79-1,3.71-2.63,4.21h0s-34.35.27-37.12.27S287.72,461.05,288.34,460.26Z" style="fill:#184968"/><path id="a5d82e89-ce1d-41ff-8f9f-18bb3f50f089" data-name="Path 9611" d="M341.2,460.4c.61-.77,10-4.29,15.72-7a27.75,27.75,0,0,0,7.8-5.94l1.15-1.26c.9-1,1.44-1.73,1.44-1.73a17,17,0,0,0,7.22,4.93c4.22,1.25,5.91.56,5.91.56l0,10a4.18,4.18,0,0,1-2.53,4.05h0s-33,.25-35.68.25S340.6,461.18,341.2,460.4Z" style="fill:#184968"/></g><g id="b89483c8-ed72-4e50-acd9-7c3b0e0bb9bc" data-name="Group 7202"><path id="bc10e526-aebe-4806-81af-34e77103db5a" data-name="Path 9621" d="M263.72,142.14l16,27.24a1.42,1.42,0,0,1-.51,1.94l-.47.27a1.44,1.44,0,0,1-1.95-.5l-16-27.24a1.43,1.43,0,0,1,.5-1.94l.48-.27A1.43,1.43,0,0,1,263.72,142.14Z" style="fill:#191c3c"/></g><path id="f8d00c7b-3b31-402d-82a0-9e1e02a2c5fb" data-name="Path 9626" d="M317.41,35.74H241.26a7.2,7.2,0,0,0-7.17,7.18V78.68a7.2,7.2,0,0,0,7.17,7.18h55.81l13.48,11.92.16-11.92h6.7a7.2,7.2,0,0,0,7.18-7.18V42.94a7.18,7.18,0,0,0-7.16-7.2Z" style="fill:#3880ff"/><path id="b8d8e65c-4538-4a4d-862a-4c2950eed9e7" data-name="Path 9629" d="M302.1,47.87,274.21,73.72a1.7,1.7,0,0,1-2.39-.14h0a1.7,1.7,0,0,1,0-2.4h0l27.9-25.85a1.69,1.69,0,0,1,2.39.13h0a1.69,1.69,0,0,1,0,2.39Z" style="fill:#fff"/><path id="b7519394-11d7-4141-8004-9c64873633c0" data-name="Path 9629" d="M265.35,61.72l9.51,10.22c.23.25-.15,1-.85,1.62h0c-.69.65-1.45,1-1.68.73h0l-9.51-10.22c-.23-.25.15-1,.85-1.62h0c.7-.65,1.45-1,1.68-.74Z" style="fill:#fff"/><path d="M126.17,193.65a3.68,3.68,0,1,0-1.82-4.87h0A3.7,3.7,0,0,0,126.17,193.65Zm.55,49.53a2.51,2.51,0,1,0-1.24-3.32h0A2.5,2.5,0,0,0,126.72,243.18Zm-24.37-20.25a4.13,4.13,0,1,0-2.06-5.48,4.15,4.15,0,0,0,2.06,5.48Z" style="fill:#95ead1"/><path id="e0de9969-a497-4d64-83bd-5b3af80ee04c" data-name="Path 9620" d="M239.57,303.87h2.9V301a1.66,1.66,0,1,1,3.31,0v2.9h2.9a1.66,1.66,0,1,1,0,3.31h-2.9v2.9a1.66,1.66,0,1,1-3.31,0h0v-2.9h-2.9a1.66,1.66,0,0,1,0-3.31Z" style="fill:#ffb13d"/><path d="M171.53,271.1a2.43,2.43,0,0,1,.36-3.43h0l5.87-4.7,3.06,3.81L175,271.48a2.44,2.44,0,0,1-3.42-.36v0" style="fill:#d46698"/><path d="M219.9,463.3H168v-179H219.9Z" style="fill:#d2dce5"/><g style="clip-path:url(#a30477bd-f89f-46cb-9a32-8ea95b5db212)"><path d="M215,284.25H183.9L168,285.53v18.9L215,300.66Zm4.94,16-4.94.39V463.3h4.94Z" style="fill:#afbecd"/><path d="M219.9,284.25H215v16.41l4.94-.39Z" style="fill:#91a4b7"/></g><path d="M126.62,272.5h77.49a2.93,2.93,0,0,0,3.13-2.71,2.44,2.44,0,0,0,0-.66l-7.41-48.46a4.2,4.2,0,0,0-4.09-3.44h-77.5a2.92,2.92,0,0,0-3.13,2.71,2.81,2.81,0,0,0,0,.65l7.37,48.48a4.22,4.22,0,0,0,4.15,3.43" style="fill:#2e5bff"/><g style="clip-path:url(#b8e33566-5bb2-47be-b86a-c275594ae72b)"><path d="M115.29,219.07a2.67,2.67,0,0,0-.22,1.12,1.85,1.85,0,0,0,0,.47l7.37,48.47a4.22,4.22,0,0,0,4.18,3.37h67.71a96.34,96.34,0,0,1-79-53.43" style="fill:#3880ff"/></g><path d="M129.31,277.91H240.38a3.84,3.84,0,0,0,4.18-3.48,4.42,4.42,0,0,0,0-.63v-.28a1.27,1.27,0,0,0-1.1-1.22H126.22a1.09,1.09,0,0,0-1.09,1.09h0v.28a4.18,4.18,0,0,0,4.12,4.24Z" style="fill:#5582ff"/><g style="clip-path:url(#efd6c2b2-caba-485f-b5cd-d046115ea20a)"><path d="M208.66,278.16l36-.23a3.69,3.69,0,0,0,3.72-3.65,3,3,0,0,0,0-.59l-.16-1.38-43,.26a1.21,1.21,0,0,0-1.21,1.21,1.28,1.28,0,0,0,0,.19A4.82,4.82,0,0,0,208.66,278.16Z" style="fill:#3880ff"/></g><path d="M59.86,280.87v3.44c0,1.65,2,3,4.51,3H313c2.5,0,4.52-1.34,4.52-3v-3.44c0-1.66-2-3-4.52-3H64.37C61.88,277.87,59.86,279.21,59.86,280.87Z" style="fill:#d4dce4"/><path d="M158.43,205.46c-12-39.55,54.53-139,93.7-75.45" style="fill:none;stroke:#3880ff;stroke-miterlimit:10;stroke-width:2.069676410837161px;stroke-dasharray:4.139352798461914,12.418058395385742"/></svg>